<mxfile host="app.diagrams.net" modified="2024-04-01T08:48:24.275Z" agent="Mozilla/5.0 (Windows NT 10.0; Win64; x64) AppleWebKit/537.36 (KHTML, like Gecko) Chrome/123.0.0.0 Safari/537.36" etag="0VBr3tSsAUBhVctKMRMb" version="24.2.1" type="github">
  <diagram id="f106602c-feb2-e66a-4537-3a34d633f6aa" name="Page-1">
    <mxGraphModel dx="3269" dy="2057" grid="1" gridSize="10" guides="1" tooltips="1" connect="1" arrows="1" fold="1" page="1" pageScale="1" pageWidth="1169" pageHeight="827" background="none" math="0" shadow="0">
      <root>
        <mxCell id="0" />
        <mxCell id="1" parent="0" />
        <mxCell id="14" value="&lt;div style=&quot;text-align: justify;&quot;&gt;&lt;br&gt;&lt;/div&gt;" style="fillColor=#F6F6F6;strokeColor=none;shadow=0;gradientColor=none;fontSize=14;align=left;spacing=10;fontColor=#717171;9E9E9E;verticalAlign=top;spacingTop=-4;fontStyle=0;spacingLeft=40;html=1;container=0;" parent="1" vertex="1">
          <mxGeometry x="-585" y="-570" width="440" height="430" as="geometry" />
        </mxCell>
        <mxCell id="2" value="`" style="fillColor=#4DA1F5;strokeColor=none;shadow=1;gradientColor=none;fontSize=14;align=left;spacingLeft=50;fontColor=#ffffff;html=1;" parent="1" vertex="1">
          <mxGeometry x="-280" y="-770" width="660" height="40" as="geometry" />
        </mxCell>
        <mxCell id="GypdRehjkYwasp8z_c5T-726" value="" style="dashed=0;outlineConnect=0;html=1;align=center;labelPosition=center;verticalLabelPosition=bottom;verticalAlign=top;shape=mxgraph.weblogos.github" vertex="1" parent="1">
          <mxGeometry x="-440" y="-560" width="40" height="37.5" as="geometry" />
        </mxCell>
        <mxCell id="GypdRehjkYwasp8z_c5T-720" value="" style="image;sketch=0;aspect=fixed;html=1;points=[];align=center;fontSize=12;image=img/lib/mscae/Docker.svg;" vertex="1" parent="1">
          <mxGeometry x="60" y="-290" width="146.34" height="120" as="geometry" />
        </mxCell>
        <mxCell id="GypdRehjkYwasp8z_c5T-729" value="&lt;div style=&quot;&quot;&gt;&lt;br&gt;&lt;/div&gt;" style="rounded=1;absoluteArcSize=1;arcSize=2;html=1;strokeColor=none;gradientColor=none;shadow=0;dashed=0;strokeColor=none;fontSize=12;fontColor=#9E9E9E;align=left;verticalAlign=top;spacing=10;spacingTop=-4;fillColor=#E1F5FE;" vertex="1" parent="1">
          <mxGeometry x="-590" y="10" width="1340" height="480" as="geometry" />
        </mxCell>
        <mxCell id="GypdRehjkYwasp8z_c5T-730" value="" style="rounded=1;absoluteArcSize=1;arcSize=2;html=1;strokeColor=#b85450;shadow=0;dashed=0;strokeColor=none;fontSize=12;align=left;verticalAlign=top;spacing=10;spacingTop=-4;fillColor=#f8cecc;" vertex="1" parent="1">
          <mxGeometry x="400" y="-570" width="444" height="430" as="geometry" />
        </mxCell>
        <mxCell id="GypdRehjkYwasp8z_c5T-736" value="List" style="swimlane;fontStyle=0;childLayout=stackLayout;horizontal=1;startSize=30;horizontalStack=0;resizeParent=1;resizeParentMax=0;resizeLast=0;collapsible=1;marginBottom=0;whiteSpace=wrap;html=1;" vertex="1" parent="1">
          <mxGeometry x="-530" y="-500" width="319.68" height="120" as="geometry" />
        </mxCell>
        <mxCell id="GypdRehjkYwasp8z_c5T-737" value="Item 1" style="text;strokeColor=none;fillColor=none;align=left;verticalAlign=middle;spacingLeft=4;spacingRight=4;overflow=hidden;points=[[0,0.5],[1,0.5]];portConstraint=eastwest;rotatable=0;whiteSpace=wrap;html=1;" vertex="1" parent="GypdRehjkYwasp8z_c5T-736">
          <mxGeometry y="30" width="319.68" height="30" as="geometry" />
        </mxCell>
        <mxCell id="GypdRehjkYwasp8z_c5T-738" value="Item 2" style="text;strokeColor=none;fillColor=none;align=left;verticalAlign=middle;spacingLeft=4;spacingRight=4;overflow=hidden;points=[[0,0.5],[1,0.5]];portConstraint=eastwest;rotatable=0;whiteSpace=wrap;html=1;" vertex="1" parent="GypdRehjkYwasp8z_c5T-736">
          <mxGeometry y="60" width="319.68" height="30" as="geometry" />
        </mxCell>
        <mxCell id="GypdRehjkYwasp8z_c5T-739" value="Item 3" style="text;strokeColor=none;fillColor=none;align=left;verticalAlign=middle;spacingLeft=4;spacingRight=4;overflow=hidden;points=[[0,0.5],[1,0.5]];portConstraint=eastwest;rotatable=0;whiteSpace=wrap;html=1;" vertex="1" parent="GypdRehjkYwasp8z_c5T-736">
          <mxGeometry y="90" width="319.68" height="30" as="geometry" />
        </mxCell>
        <mxCell id="GypdRehjkYwasp8z_c5T-745" value="&lt;b style=&quot;text-align: left; text-wrap: nowrap; background-color: initial; color: rgb(113, 113, 113);&quot;&gt;&lt;font style=&quot;font-size: 23px;&quot;&gt;K8S Clustering(master node, worker 1 node, worker 2 nod)&lt;/font&gt;&lt;/b&gt;" style="text;strokeColor=none;fillColor=none;html=1;align=center;verticalAlign=middle;whiteSpace=wrap;rounded=0;fontSize=16;" vertex="1" parent="1">
          <mxGeometry x="-240" y="20" width="680" height="40" as="geometry" />
        </mxCell>
        <mxCell id="GypdRehjkYwasp8z_c5T-751" value="" style="shape=image;html=1;verticalAlign=top;verticalLabelPosition=bottom;labelBackgroundColor=#ffffff;imageAspect=0;aspect=fixed;image=https://cdn2.iconfinder.com/data/icons/social-media-2285/512/1_Slack_colored_svg-128.png" vertex="1" parent="1">
          <mxGeometry x="60" y="-580" width="128" height="128" as="geometry" />
        </mxCell>
        <mxCell id="GypdRehjkYwasp8z_c5T-754" value="&lt;b&gt;&lt;font style=&quot;font-size: 14px;&quot;&gt;DEV&lt;/font&gt;&lt;/b&gt;" style="sketch=0;outlineConnect=0;gradientColor=none;fontColor=#545B64;strokeColor=none;fillColor=#879196;dashed=0;verticalLabelPosition=bottom;verticalAlign=top;align=center;html=1;fontSize=12;fontStyle=0;aspect=fixed;shape=mxgraph.aws4.illustration_desktop;pointerEvents=1" vertex="1" parent="1">
          <mxGeometry x="-910" y="-510" width="100" height="91" as="geometry" />
        </mxCell>
        <mxCell id="GypdRehjkYwasp8z_c5T-755" value="" style="group" vertex="1" connectable="0" parent="1">
          <mxGeometry x="-730" y="-480" width="55" height="70" as="geometry" />
        </mxCell>
        <mxCell id="GypdRehjkYwasp8z_c5T-733" value="" style="endArrow=classic;html=1;rounded=0;fontSize=12;startSize=8;endSize=8;curved=1;entryX=0;entryY=0.25;entryDx=0;entryDy=0;" edge="1" parent="GypdRehjkYwasp8z_c5T-755" source="GypdRehjkYwasp8z_c5T-754" target="14">
          <mxGeometry width="50" height="50" relative="1" as="geometry">
            <mxPoint x="-80" y="20" as="sourcePoint" />
            <mxPoint x="130" y="40" as="targetPoint" />
          </mxGeometry>
        </mxCell>
        <mxCell id="GypdRehjkYwasp8z_c5T-731" value="" style="image;aspect=fixed;html=1;points=[];align=center;fontSize=12;image=img/lib/azure2/general/Dev_Console.svg;rotation=0;" vertex="1" parent="GypdRehjkYwasp8z_c5T-755">
          <mxGeometry width="50" height="40" as="geometry" />
        </mxCell>
        <mxCell id="GypdRehjkYwasp8z_c5T-806" value="Code" style="text;html=1;align=center;verticalAlign=middle;whiteSpace=wrap;rounded=0;fontSize=16;" vertex="1" parent="GypdRehjkYwasp8z_c5T-755">
          <mxGeometry x="-5" y="40" width="60" height="30" as="geometry" />
        </mxCell>
        <mxCell id="GypdRehjkYwasp8z_c5T-758" value="" style="endArrow=classic;html=1;rounded=0;fontSize=12;startSize=8;endSize=8;curved=1;entryX=0;entryY=0.547;entryDx=0;entryDy=0;entryPerimeter=0;exitX=0.998;exitY=0.141;exitDx=0;exitDy=0;exitPerimeter=0;" edge="1" parent="1" source="14" target="GypdRehjkYwasp8z_c5T-751">
          <mxGeometry relative="1" as="geometry">
            <mxPoint x="-140" y="-510" as="sourcePoint" />
            <mxPoint x="-45" y="-500" as="targetPoint" />
          </mxGeometry>
        </mxCell>
        <mxCell id="GypdRehjkYwasp8z_c5T-759" value="" style="shape=message;html=1;outlineConnect=0;" vertex="1" parent="GypdRehjkYwasp8z_c5T-758">
          <mxGeometry width="50" height="34" relative="1" as="geometry">
            <mxPoint x="-27" y="-19" as="offset" />
          </mxGeometry>
        </mxCell>
        <mxCell id="GypdRehjkYwasp8z_c5T-768" value="" style="html=1;shadow=0;dashed=0;align=center;verticalAlign=middle;shape=mxgraph.arrows2.twoWayArrow;dy=0.65;dx=22;rotation=90;" vertex="1" parent="1">
          <mxGeometry x="19" y="550" width="140" height="60" as="geometry" />
        </mxCell>
        <mxCell id="GypdRehjkYwasp8z_c5T-786" value="" style="rounded=0;whiteSpace=wrap;html=1;fillColor=#fff2cc;strokeColor=#d6b656;" vertex="1" parent="1">
          <mxGeometry x="-530" y="65" width="290" height="370" as="geometry" />
        </mxCell>
        <mxCell id="GypdRehjkYwasp8z_c5T-774" value="" style="image;aspect=fixed;perimeter=ellipsePerimeter;html=1;align=center;shadow=0;dashed=0;spacingTop=3;image=img/lib/active_directory/web_server.svg;" vertex="1" parent="1">
          <mxGeometry x="-486" y="72.5" width="60" height="75" as="geometry" />
        </mxCell>
        <mxCell id="GypdRehjkYwasp8z_c5T-777" value="&lt;font style=&quot;font-size: 20px;&quot;&gt;Web server&lt;/font&gt;" style="text;html=1;align=center;verticalAlign=middle;whiteSpace=wrap;rounded=0;fontSize=16;" vertex="1" parent="1">
          <mxGeometry x="-426" y="80" width="116" height="50" as="geometry" />
        </mxCell>
        <mxCell id="GypdRehjkYwasp8z_c5T-781" value="" style="aspect=fixed;sketch=0;html=1;dashed=0;whitespace=wrap;fillColor=#2875E2;strokeColor=#ffffff;points=[[0.005,0.63,0],[0.1,0.2,0],[0.9,0.2,0],[0.5,0,0],[0.995,0.63,0],[0.72,0.99,0],[0.5,1,0],[0.28,0.99,0]];shape=mxgraph.kubernetes.icon2;kubernetesLabel=1;prIcon=pod" vertex="1" parent="1">
          <mxGeometry x="-476.98" y="178.75" width="57.3" height="55" as="geometry" />
        </mxCell>
        <mxCell id="GypdRehjkYwasp8z_c5T-783" value="&lt;font style=&quot;font-size: 20px;&quot;&gt;Myweb 1&lt;/font&gt;" style="text;html=1;align=center;verticalAlign=middle;whiteSpace=wrap;rounded=0;fontSize=16;" vertex="1" parent="1">
          <mxGeometry x="-419.68" y="188.75" width="100" height="35" as="geometry" />
        </mxCell>
        <mxCell id="GypdRehjkYwasp8z_c5T-784" value="&lt;font style=&quot;font-size: 20px;&quot;&gt;Myweb *&lt;/font&gt;" style="text;html=1;align=center;verticalAlign=middle;whiteSpace=wrap;rounded=0;fontSize=16;" vertex="1" parent="1">
          <mxGeometry x="-422.68" y="260" width="100" height="35" as="geometry" />
        </mxCell>
        <mxCell id="GypdRehjkYwasp8z_c5T-785" value="&lt;font style=&quot;font-size: 20px;&quot;&gt;...&lt;/font&gt;" style="text;html=1;align=center;verticalAlign=middle;whiteSpace=wrap;rounded=0;fontSize=16;" vertex="1" parent="1">
          <mxGeometry x="-419.68" y="225" width="100" height="35" as="geometry" />
        </mxCell>
        <mxCell id="GypdRehjkYwasp8z_c5T-787" value="" style="aspect=fixed;sketch=0;html=1;dashed=0;whitespace=wrap;fillColor=#2875E2;strokeColor=#ffffff;points=[[0.005,0.63,0],[0.1,0.2,0],[0.9,0.2,0],[0.5,0,0],[0.995,0.63,0],[0.72,0.99,0],[0.5,1,0],[0.28,0.99,0]];shape=mxgraph.kubernetes.icon2;kubernetesLabel=1;prIcon=pod" vertex="1" parent="1">
          <mxGeometry x="-476.98" y="250" width="57.3" height="55" as="geometry" />
        </mxCell>
        <mxCell id="GypdRehjkYwasp8z_c5T-788" value="" style="rounded=0;whiteSpace=wrap;html=1;fillColor=#fff2cc;strokeColor=#d6b656;" vertex="1" parent="1">
          <mxGeometry x="90" y="65" width="290" height="370" as="geometry" />
        </mxCell>
        <mxCell id="GypdRehjkYwasp8z_c5T-775" value="" style="image;aspect=fixed;html=1;points=[];align=center;fontSize=12;image=img/lib/azure2/management_governance/Metrics.svg;" vertex="1" parent="1">
          <mxGeometry x="114" y="77.5" width="60" height="65" as="geometry" />
        </mxCell>
        <mxCell id="GypdRehjkYwasp8z_c5T-779" value="&lt;font style=&quot;font-size: 20px;&quot;&gt;MetricBeat&lt;/font&gt;" style="text;html=1;align=center;verticalAlign=middle;whiteSpace=wrap;rounded=0;fontSize=16;" vertex="1" parent="1">
          <mxGeometry x="177.3" y="87.5" width="112.7" height="45" as="geometry" />
        </mxCell>
        <mxCell id="GypdRehjkYwasp8z_c5T-789" value="" style="aspect=fixed;sketch=0;html=1;dashed=0;whitespace=wrap;fillColor=#2875E2;strokeColor=#ffffff;points=[[0.005,0.63,0],[0.1,0.2,0],[0.9,0.2,0],[0.5,0,0],[0.995,0.63,0],[0.72,0.99,0],[0.5,1,0],[0.28,0.99,0]];shape=mxgraph.kubernetes.icon2;kubernetesLabel=1;prIcon=pod" vertex="1" parent="1">
          <mxGeometry x="120" y="178.75" width="57.3" height="55" as="geometry" />
        </mxCell>
        <mxCell id="GypdRehjkYwasp8z_c5T-790" value="&lt;span style=&quot;font-size: 20px;&quot;&gt;metricbeat 1&lt;/span&gt;" style="text;html=1;align=center;verticalAlign=middle;whiteSpace=wrap;rounded=0;fontSize=16;" vertex="1" parent="1">
          <mxGeometry x="177.3" y="188.75" width="122.7" height="35" as="geometry" />
        </mxCell>
        <mxCell id="GypdRehjkYwasp8z_c5T-791" value="" style="aspect=fixed;sketch=0;html=1;dashed=0;whitespace=wrap;fillColor=#2875E2;strokeColor=#ffffff;points=[[0.005,0.63,0],[0.1,0.2,0],[0.9,0.2,0],[0.5,0,0],[0.995,0.63,0],[0.72,0.99,0],[0.5,1,0],[0.28,0.99,0]];shape=mxgraph.kubernetes.icon2;kubernetesLabel=1;prIcon=pod" vertex="1" parent="1">
          <mxGeometry x="120" y="258.75" width="57.3" height="55" as="geometry" />
        </mxCell>
        <mxCell id="GypdRehjkYwasp8z_c5T-792" value="&lt;span style=&quot;font-size: 20px;&quot;&gt;metricbeat 2&lt;/span&gt;" style="text;html=1;align=center;verticalAlign=middle;whiteSpace=wrap;rounded=0;fontSize=16;" vertex="1" parent="1">
          <mxGeometry x="177.3" y="268.75" width="122.7" height="35" as="geometry" />
        </mxCell>
        <mxCell id="GypdRehjkYwasp8z_c5T-793" value="&lt;b style=&quot;forced-color-adjust: none; font-family: Helvetica; font-size: 16px; font-style: normal; font-variant-ligatures: normal; font-variant-caps: normal; letter-spacing: normal; orphans: 2; text-indent: 0px; text-transform: none; widows: 2; word-spacing: 0px; -webkit-text-stroke-width: 0px; white-space: nowrap; background-color: initial; text-decoration-thickness: initial; text-decoration-style: initial; text-decoration-color: initial; text-align: left; color: rgb(113, 113, 113);&quot;&gt;&lt;font style=&quot;forced-color-adjust: none; font-size: 23px;&quot;&gt;Jenkins Node&lt;/font&gt;&lt;/b&gt;" style="text;whiteSpace=wrap;html=1;" vertex="1" parent="1">
          <mxGeometry x="537" y="-560" width="170" height="50" as="geometry" />
        </mxCell>
        <mxCell id="GypdRehjkYwasp8z_c5T-798" value="" style="rounded=0;whiteSpace=wrap;html=1;fillColor=#fff2cc;strokeColor=#d6b656;" vertex="1" parent="1">
          <mxGeometry x="-220" y="65" width="290" height="370" as="geometry" />
        </mxCell>
        <mxCell id="GypdRehjkYwasp8z_c5T-771" value="" style="sketch=0;points=[[0,0,0],[0.25,0,0],[0.5,0,0],[0.75,0,0],[1,0,0],[0,1,0],[0.25,1,0],[0.5,1,0],[0.75,1,0],[1,1,0],[0,0.25,0],[0,0.5,0],[0,0.75,0],[1,0.25,0],[1,0.5,0],[1,0.75,0]];outlineConnect=0;fontColor=#232F3E;fillColor=#8C4FFF;strokeColor=#ffffff;dashed=0;verticalLabelPosition=bottom;verticalAlign=top;align=center;html=1;fontSize=12;fontStyle=0;aspect=fixed;shape=mxgraph.aws4.resourceIcon;resIcon=mxgraph.aws4.elasticsearch_service;" vertex="1" parent="1">
          <mxGeometry x="-200" y="77.5" width="65" height="65" as="geometry" />
        </mxCell>
        <mxCell id="GypdRehjkYwasp8z_c5T-778" value="&lt;font style=&quot;font-size: 20px;&quot;&gt;ElasticSearch&lt;/font&gt;" style="text;html=1;align=center;verticalAlign=middle;whiteSpace=wrap;rounded=0;fontSize=16;" vertex="1" parent="1">
          <mxGeometry x="-132.7" y="92.5" width="150" height="45" as="geometry" />
        </mxCell>
        <mxCell id="GypdRehjkYwasp8z_c5T-799" value="" style="aspect=fixed;sketch=0;html=1;dashed=0;whitespace=wrap;fillColor=#2875E2;strokeColor=#ffffff;points=[[0.005,0.63,0],[0.1,0.2,0],[0.9,0.2,0],[0.5,0,0],[0.995,0.63,0],[0.72,0.99,0],[0.5,1,0],[0.28,0.99,0]];shape=mxgraph.kubernetes.icon2;kubernetesLabel=1;prIcon=pod" vertex="1" parent="1">
          <mxGeometry x="-190" y="178.75" width="57.3" height="55" as="geometry" />
        </mxCell>
        <mxCell id="GypdRehjkYwasp8z_c5T-800" value="&lt;span style=&quot;font-size: 20px;&quot;&gt;ElasticSearch&lt;/span&gt;" style="text;html=1;align=center;verticalAlign=middle;whiteSpace=wrap;rounded=0;fontSize=16;" vertex="1" parent="1">
          <mxGeometry x="-132.7" y="188.75" width="132.7" height="35" as="geometry" />
        </mxCell>
        <mxCell id="GypdRehjkYwasp8z_c5T-801" value="" style="rounded=0;whiteSpace=wrap;html=1;fillColor=#fff2cc;strokeColor=#d6b656;" vertex="1" parent="1">
          <mxGeometry x="400" y="65" width="290" height="370" as="geometry" />
        </mxCell>
        <mxCell id="GypdRehjkYwasp8z_c5T-772" value="" style="outlineConnect=0;dashed=0;verticalLabelPosition=bottom;verticalAlign=top;align=center;html=1;shape=mxgraph.aws3.mysql_db_instance;fillColor=#2E73B8;gradientColor=none;" vertex="1" parent="1">
          <mxGeometry x="420" y="77.5" width="60" height="65" as="geometry" />
        </mxCell>
        <mxCell id="GypdRehjkYwasp8z_c5T-780" value="&lt;font style=&quot;font-size: 20px;&quot;&gt;DB&lt;/font&gt;" style="text;html=1;align=center;verticalAlign=middle;whiteSpace=wrap;rounded=0;fontSize=16;" vertex="1" parent="1">
          <mxGeometry x="500" y="87.5" width="60" height="45" as="geometry" />
        </mxCell>
        <mxCell id="GypdRehjkYwasp8z_c5T-802" value="" style="aspect=fixed;sketch=0;html=1;dashed=0;whitespace=wrap;fillColor=#2875E2;strokeColor=#ffffff;points=[[0.005,0.63,0],[0.1,0.2,0],[0.9,0.2,0],[0.5,0,0],[0.995,0.63,0],[0.72,0.99,0],[0.5,1,0],[0.28,0.99,0]];shape=mxgraph.kubernetes.icon2;kubernetesLabel=1;prIcon=pod" vertex="1" parent="1">
          <mxGeometry x="410" y="178.75" width="57.3" height="55" as="geometry" />
        </mxCell>
        <mxCell id="GypdRehjkYwasp8z_c5T-803" value="&lt;span style=&quot;font-size: 20px;&quot;&gt;MySQL&lt;/span&gt;" style="text;html=1;align=center;verticalAlign=middle;whiteSpace=wrap;rounded=0;fontSize=16;" vertex="1" parent="1">
          <mxGeometry x="467.3" y="188.75" width="92.7" height="41.25" as="geometry" />
        </mxCell>
        <mxCell id="GypdRehjkYwasp8z_c5T-804" value="" style="group" vertex="1" connectable="0" parent="1">
          <mxGeometry x="4" y="660" width="170" height="250" as="geometry" />
        </mxCell>
        <mxCell id="GypdRehjkYwasp8z_c5T-741" value="" style="outlineConnect=0;dashed=0;verticalLabelPosition=bottom;verticalAlign=top;align=center;html=1;shape=mxgraph.aws3.volume;fillColor=#E05243;gradientColor=none;" vertex="1" parent="GypdRehjkYwasp8z_c5T-804">
          <mxGeometry x="15" width="140" height="190" as="geometry" />
        </mxCell>
        <mxCell id="GypdRehjkYwasp8z_c5T-770" value="&lt;div style=&quot;text-align: left;&quot;&gt;&lt;span style=&quot;background-color: initial; font-size: 23px; text-wrap: nowrap;&quot;&gt;&lt;font color=&quot;#717171&quot;&gt;&lt;b&gt;Storage Node&lt;/b&gt;&lt;/font&gt;&lt;/span&gt;&lt;/div&gt;" style="text;strokeColor=none;fillColor=none;html=1;align=center;verticalAlign=middle;whiteSpace=wrap;rounded=0;fontSize=16;" vertex="1" parent="GypdRehjkYwasp8z_c5T-804">
          <mxGeometry y="210" width="170" height="40" as="geometry" />
        </mxCell>
        <mxCell id="GypdRehjkYwasp8z_c5T-805" style="edgeStyle=none;curved=1;rounded=0;orthogonalLoop=1;jettySize=auto;html=1;exitX=0.5;exitY=0;exitDx=0;exitDy=40.5;exitPerimeter=0;fontSize=12;startSize=8;endSize=8;" edge="1" parent="1" source="GypdRehjkYwasp8z_c5T-768" target="GypdRehjkYwasp8z_c5T-768">
          <mxGeometry relative="1" as="geometry" />
        </mxCell>
        <mxCell id="GypdRehjkYwasp8z_c5T-807" value="&lt;b style=&quot;forced-color-adjust: none; font-family: Helvetica; font-size: 16px; font-style: normal; font-variant-ligatures: normal; font-variant-caps: normal; letter-spacing: normal; orphans: 2; text-indent: 0px; text-transform: none; widows: 2; word-spacing: 0px; -webkit-text-stroke-width: 0px; white-space: nowrap; background-color: initial; text-decoration-thickness: initial; text-decoration-style: initial; text-decoration-color: initial; text-align: left; color: rgb(113, 113, 113);&quot;&gt;&lt;font style=&quot;forced-color-adjust: none; font-size: 23px;&quot;&gt;GitHub&lt;/font&gt;&lt;/b&gt;" style="text;whiteSpace=wrap;html=1;" vertex="1" parent="1">
          <mxGeometry x="-395" y="-560" width="80" height="40" as="geometry" />
        </mxCell>
        <mxCell id="GypdRehjkYwasp8z_c5T-808" value="" style="dashed=0;outlineConnect=0;html=1;align=center;labelPosition=center;verticalLabelPosition=bottom;verticalAlign=top;shape=mxgraph.weblogos.chrome" vertex="1" parent="1">
          <mxGeometry x="-464.47999999999996" y="107.5" width="44.8" height="40" as="geometry" />
        </mxCell>
        <mxCell id="GypdRehjkYwasp8z_c5T-809" value="PipeLine" style="swimlane;whiteSpace=wrap;html=1;" vertex="1" parent="1">
          <mxGeometry x="437" y="-520" width="370" height="350" as="geometry" />
        </mxCell>
        <mxCell id="GypdRehjkYwasp8z_c5T-811" value="Checkout GitHub" style="whiteSpace=wrap;html=1;" vertex="1" parent="GypdRehjkYwasp8z_c5T-809">
          <mxGeometry x="20" y="40" width="330" height="50" as="geometry" />
        </mxCell>
        <mxCell id="GypdRehjkYwasp8z_c5T-812" value="Docker image build&amp;nbsp;" style="whiteSpace=wrap;html=1;" vertex="1" parent="GypdRehjkYwasp8z_c5T-809">
          <mxGeometry x="20" y="120" width="330" height="50" as="geometry" />
        </mxCell>
        <mxCell id="GypdRehjkYwasp8z_c5T-813" value="Docker image push" style="whiteSpace=wrap;html=1;" vertex="1" parent="GypdRehjkYwasp8z_c5T-809">
          <mxGeometry x="20" y="200" width="330" height="50" as="geometry" />
        </mxCell>
        <mxCell id="GypdRehjkYwasp8z_c5T-814" value="Docker image pull (Ansible Playbook)" style="whiteSpace=wrap;html=1;" vertex="1" parent="GypdRehjkYwasp8z_c5T-809">
          <mxGeometry x="20" y="280" width="330" height="50" as="geometry" />
        </mxCell>
        <mxCell id="GypdRehjkYwasp8z_c5T-815" value="" style="edgeStyle=none;orthogonalLoop=1;jettySize=auto;html=1;rounded=0;fontSize=12;startSize=8;endSize=8;curved=1;exitX=0.5;exitY=1;exitDx=0;exitDy=0;" edge="1" parent="GypdRehjkYwasp8z_c5T-809" source="GypdRehjkYwasp8z_c5T-811" target="GypdRehjkYwasp8z_c5T-812">
          <mxGeometry width="140" relative="1" as="geometry">
            <mxPoint x="200" y="260" as="sourcePoint" />
            <mxPoint x="340" y="260" as="targetPoint" />
            <Array as="points" />
          </mxGeometry>
        </mxCell>
        <mxCell id="GypdRehjkYwasp8z_c5T-816" value="" style="edgeStyle=none;orthogonalLoop=1;jettySize=auto;html=1;rounded=0;fontSize=12;startSize=8;endSize=8;curved=1;exitX=0.5;exitY=1;exitDx=0;exitDy=0;entryX=0.5;entryY=0;entryDx=0;entryDy=0;" edge="1" parent="GypdRehjkYwasp8z_c5T-809" source="GypdRehjkYwasp8z_c5T-812" target="GypdRehjkYwasp8z_c5T-813">
          <mxGeometry width="140" relative="1" as="geometry">
            <mxPoint x="195" y="100" as="sourcePoint" />
            <mxPoint x="195" y="130" as="targetPoint" />
            <Array as="points" />
          </mxGeometry>
        </mxCell>
        <mxCell id="GypdRehjkYwasp8z_c5T-817" value="" style="edgeStyle=none;orthogonalLoop=1;jettySize=auto;html=1;rounded=0;fontSize=12;startSize=8;endSize=8;curved=1;exitX=0.5;exitY=1;exitDx=0;exitDy=0;entryX=0.5;entryY=0;entryDx=0;entryDy=0;" edge="1" parent="GypdRehjkYwasp8z_c5T-809" source="GypdRehjkYwasp8z_c5T-813" target="GypdRehjkYwasp8z_c5T-814">
          <mxGeometry width="140" relative="1" as="geometry">
            <mxPoint x="195" y="180" as="sourcePoint" />
            <mxPoint x="195" y="210" as="targetPoint" />
            <Array as="points" />
          </mxGeometry>
        </mxCell>
        <mxCell id="GypdRehjkYwasp8z_c5T-819" value="1. 개발자의 코드 업데이트 후 Commit" style="text;html=1;align=center;verticalAlign=middle;whiteSpace=wrap;rounded=0;fontSize=16;" vertex="1" parent="1">
          <mxGeometry x="-880" y="-380" width="280" height="30" as="geometry" />
        </mxCell>
        <mxCell id="GypdRehjkYwasp8z_c5T-820" value="2. Slack으로 Commit 알람 전송" style="text;html=1;align=center;verticalAlign=middle;whiteSpace=wrap;rounded=0;fontSize=16;" vertex="1" parent="1">
          <mxGeometry x="-135" y="-480" width="165" height="40" as="geometry" />
        </mxCell>
        <mxCell id="GypdRehjkYwasp8z_c5T-821" style="edgeStyle=none;curved=1;rounded=0;orthogonalLoop=1;jettySize=auto;html=1;exitX=1;exitY=0.5;exitDx=0;exitDy=0;fontSize=12;startSize=8;endSize=8;" edge="1" parent="1" source="GypdRehjkYwasp8z_c5T-820" target="GypdRehjkYwasp8z_c5T-820">
          <mxGeometry relative="1" as="geometry" />
        </mxCell>
        <mxCell id="GypdRehjkYwasp8z_c5T-822" value="3. Test 배포 진행 요청" style="text;html=1;align=center;verticalAlign=middle;whiteSpace=wrap;rounded=0;fontSize=16;" vertex="1" parent="1">
          <mxGeometry x="200" y="-510" width="165" height="40" as="geometry" />
        </mxCell>
        <mxCell id="GypdRehjkYwasp8z_c5T-824" value="" style="edgeStyle=elbowEdgeStyle;elbow=horizontal;endArrow=classic;html=1;curved=0;rounded=0;endSize=8;startSize=8;fontSize=12;exitX=1;exitY=0.5;exitDx=0;exitDy=0;entryX=0;entryY=0.5;entryDx=0;entryDy=0;" edge="1" parent="1" source="GypdRehjkYwasp8z_c5T-751" target="GypdRehjkYwasp8z_c5T-811">
          <mxGeometry width="50" height="50" relative="1" as="geometry">
            <mxPoint x="260" y="-388" as="sourcePoint" />
            <mxPoint x="310" y="-438" as="targetPoint" />
            <Array as="points">
              <mxPoint x="370" y="-480" />
            </Array>
          </mxGeometry>
        </mxCell>
        <mxCell id="GypdRehjkYwasp8z_c5T-825" value="" style="edgeStyle=elbowEdgeStyle;elbow=horizontal;endArrow=classic;html=1;curved=0;rounded=0;endSize=8;startSize=8;fontSize=12;exitX=0;exitY=0.5;exitDx=0;exitDy=0;entryX=1.005;entryY=0.215;entryDx=0;entryDy=0;entryPerimeter=0;" edge="1" parent="1" source="GypdRehjkYwasp8z_c5T-813" target="GypdRehjkYwasp8z_c5T-720">
          <mxGeometry width="50" height="50" relative="1" as="geometry">
            <mxPoint x="290" y="-320" as="sourcePoint" />
            <mxPoint x="340" y="-370" as="targetPoint" />
          </mxGeometry>
        </mxCell>
        <mxCell id="GypdRehjkYwasp8z_c5T-826" value="4. Docker image push" style="text;html=1;align=center;verticalAlign=middle;whiteSpace=wrap;rounded=0;fontSize=16;" vertex="1" parent="1">
          <mxGeometry x="215" y="-340" width="165" height="40" as="geometry" />
        </mxCell>
        <mxCell id="GypdRehjkYwasp8z_c5T-832" value="" style="edgeStyle=segmentEdgeStyle;endArrow=classic;html=1;curved=0;rounded=0;endSize=8;startSize=8;fontSize=12;entryX=0.649;entryY=0;entryDx=0;entryDy=0;entryPerimeter=0;exitX=0;exitY=0.5;exitDx=0;exitDy=0;" edge="1" parent="1" source="GypdRehjkYwasp8z_c5T-814" target="GypdRehjkYwasp8z_c5T-729">
          <mxGeometry width="50" height="50" relative="1" as="geometry">
            <mxPoint x="215" y="-70" as="sourcePoint" />
            <mxPoint x="280" y="-160" as="targetPoint" />
            <Array as="points">
              <mxPoint x="280" y="-215" />
            </Array>
          </mxGeometry>
        </mxCell>
        <mxCell id="GypdRehjkYwasp8z_c5T-833" value="5. Docker image pull 실행 요청" style="text;html=1;align=center;verticalAlign=middle;whiteSpace=wrap;rounded=0;fontSize=16;" vertex="1" parent="1">
          <mxGeometry x="290" y="-120" width="250" height="40" as="geometry" />
        </mxCell>
        <mxCell id="GypdRehjkYwasp8z_c5T-835" value="6. Docker image pull" style="text;html=1;align=center;verticalAlign=middle;whiteSpace=wrap;rounded=0;fontSize=16;" vertex="1" parent="1">
          <mxGeometry x="-40" y="-120" width="160" height="40" as="geometry" />
        </mxCell>
        <mxCell id="GypdRehjkYwasp8z_c5T-836" value="" style="endArrow=classic;html=1;rounded=0;fontSize=12;startSize=8;endSize=8;curved=1;entryX=0.542;entryY=-0.005;entryDx=0;entryDy=0;entryPerimeter=0;exitX=0.521;exitY=1.007;exitDx=0;exitDy=0;exitPerimeter=0;" edge="1" parent="1" source="GypdRehjkYwasp8z_c5T-720" target="GypdRehjkYwasp8z_c5T-729">
          <mxGeometry width="50" height="50" relative="1" as="geometry">
            <mxPoint x="-50" y="80" as="sourcePoint" />
            <mxPoint x="100" y="-70" as="targetPoint" />
          </mxGeometry>
        </mxCell>
      </root>
    </mxGraphModel>
  </diagram>
</mxfile>
